<svg width="24" height="24" viewBox="0 0 24 24" fill="none" xmlns="http://www.w3.org/2000/svg">
<path d="M6.75 0C7.1625 0 7.5 0.3375 7.5 0.75V3H16.5V0.75C16.5 0.3375 16.8375 0 17.25 0C17.6625 0 18 0.3375 18 0.75V3H19.5C21.1547 3 22.5 4.34531 22.5 6V7.5V9V21C22.5 22.6547 21.1547 24 19.5 24H4.5C2.84531 24 1.5 22.6547 1.5 21V9V7.5V6C1.5 4.34531 2.84531 3 4.5 3H6V0.75C6 0.3375 6.3375 0 6.75 0ZM21 9H3V21C3 21.8297 3.67031 22.5 4.5 22.5H19.5C20.3297 22.5 21 21.8297 21 21V9ZM19.5 4.5H4.5C3.67031 4.5 3 5.17031 3 6V7.5H21V6C21 5.17031 20.3297 4.5 19.5 4.5ZM19.5 12.75C19.5 13.1625 19.1625 13.5 18.75 13.5H11.25C10.8375 13.5 10.5 13.1625 10.5 12.75C10.5 12.3375 10.8375 12 11.25 12H18.75C19.1625 12 19.5 12.3375 19.5 12.75ZM12.75 19.5H5.25C4.8375 19.5 4.5 19.1625 4.5 18.75C4.5 18.3375 4.8375 18 5.25 18H12.75C13.1625 18 13.5 18.3375 13.5 18.75C13.5 19.1625 13.1625 19.5 12.75 19.5ZM6 12.75C6 12.9489 6.07902 13.1397 6.21967 13.2803C6.36032 13.421 6.55109 13.5 6.75 13.5C6.94891 13.5 7.13968 13.421 7.28033 13.2803C7.42098 13.1397 7.5 12.9489 7.5 12.75C7.5 12.5511 7.42098 12.3603 7.28033 12.2197C7.13968 12.079 6.94891 12 6.75 12C6.55109 12 6.36032 12.079 6.21967 12.2197C6.07902 12.3603 6 12.5511 6 12.75ZM6.75 15C6.15326 15 5.58097 14.7629 5.15901 14.341C4.73705 13.919 4.5 13.3467 4.5 12.75C4.5 12.1533 4.73705 11.581 5.15901 11.159C5.58097 10.7371 6.15326 10.5 6.75 10.5C7.34674 10.5 7.91903 10.7371 8.34099 11.159C8.76295 11.581 9 12.1533 9 12.75C9 13.3467 8.76295 13.919 8.34099 14.341C7.91903 14.7629 7.34674 15 6.75 15ZM17.25 19.5C17.4489 19.5 17.6397 19.421 17.7803 19.2803C17.921 19.1397 18 18.9489 18 18.75C18 18.5511 17.921 18.3603 17.7803 18.2197C17.6397 18.079 17.4489 18 17.25 18C17.0511 18 16.8603 18.079 16.7197 18.2197C16.579 18.3603 16.5 18.5511 16.5 18.75C16.5 18.9489 16.579 19.1397 16.7197 19.2803C16.8603 19.421 17.0511 19.5 17.25 19.5ZM19.5 18.75C19.5 19.3467 19.2629 19.919 18.841 20.341C18.419 20.7629 17.8467 21 17.25 21C16.6533 21 16.081 20.7629 15.659 20.341C15.2371 19.919 15 19.3467 15 18.75C15 18.1533 15.2371 17.581 15.659 17.159C16.081 16.7371 16.6533 16.5 17.25 16.5C17.8467 16.5 18.419 16.7371 18.841 17.159C19.2629 17.581 19.5 18.1533 19.5 18.75Z" fill="black"/>
</svg>
