<svg width="24" height="24" viewBox="0 0 24 24" fill="none" xmlns="http://www.w3.org/2000/svg">
<g clip-path="url(#clip0_1_68)">
<path d="M3.49687 0.0093681C3.90469 0.0796806 4.18125 0.464056 4.11562 0.871868L3.03281 7.37812C3.01406 7.49999 3 7.62187 3 7.74843V8.24999C3 9.49218 4.00781 10.5 5.25 10.5H6.75H8.25C9.49219 10.5 10.5 9.49218 10.5 8.24999V7.74843C10.5 7.62656 10.4906 7.49999 10.4672 7.37812L9.38437 0.871868C9.31406 0.464056 9.59062 0.0749931 10.0031 0.0093681C10.4156 -0.0562569 10.8 0.215618 10.8656 0.628118L11.9484 7.13437C11.9812 7.33593 12 7.54218 12 7.75312V8.24999C12 10.3219 10.3219 12 8.25 12H7.5V23.25C7.5 23.6625 7.1625 24 6.75 24C6.3375 24 6 23.6625 6 23.25V12H5.25C3.17812 12 1.5 10.3219 1.5 8.24999V7.74843C1.5 7.54218 1.51875 7.33593 1.55156 7.12968L2.63438 0.628118C2.70469 0.220306 3.08906 -0.0562569 3.49687 0.0093681ZM5.6625 -6.90226e-06C6.075 0.0187431 6.39375 0.374993 6.375 0.787493L6 8.28749C5.98125 8.69999 5.625 9.01874 5.2125 8.99999C4.8 8.98124 4.48125 8.62499 4.5 8.21249L4.875 0.712493C4.89844 0.299993 5.25 -0.0187569 5.6625 -6.90226e-06ZM7.8375 -6.90226e-06C8.25 -0.0187569 8.60156 0.299993 8.625 0.712493L9 8.21249C9.01875 8.62499 8.7 8.97656 8.2875 8.99999C7.875 9.02343 7.52344 8.69999 7.5 8.28749L7.125 0.787493C7.10625 0.374993 7.425 0.0234306 7.8375 -6.90226e-06ZM16.5 8.24999V13.5C16.5 14.3297 17.1703 15 18 15H21V1.50937L20.9906 1.51406C20.9109 1.53281 20.6766 1.58437 20.3203 1.72968C19.8469 1.92187 19.2656 2.24062 18.7031 2.72812C17.6156 3.67031 16.5 5.32031 16.5 8.24999ZM21 -6.90226e-06C21.8297 -6.90226e-06 22.5 0.670306 22.5 1.49999V15V15.75V16.5V23.25C22.5 23.6625 22.1625 24 21.75 24C21.3375 24 21 23.6625 21 23.25V16.5H18C16.3453 16.5 15 15.1547 15 13.5V8.24999C15 1.49999 20.25 -6.90226e-06 21 -6.90226e-06Z" fill="black"/>
</g>
<defs>
<clipPath id="clip0_1_68">
<rect width="24" height="24" fill="white"/>
</clipPath>
</defs>
</svg>
