<svg width="24" height="24" viewBox="0 0 24 24" fill="none" xmlns="http://www.w3.org/2000/svg">
<g clip-path="url(#clip0_105_14)">
<path d="M12.3703 0.0984375C12.1406 -0.0328125 11.8594 -0.0328125 11.6297 0.0984375L0.740625 6.26719C0.28125 6.52969 0 7.0125 0 7.5375C0 8.34375 0.65625 9 1.4625 9H12H22.5375C23.3438 9 24 8.34375 24 7.5375C24 7.0125 23.7188 6.525 23.2594 6.26719L12.3703 0.0984375ZM14.3719 7.5C14.5359 7.15781 14.625 6.77812 14.625 6.375C14.625 4.92656 13.4484 3.75 12 3.75C10.5516 3.75 9.375 4.92656 9.375 6.375C9.375 6.77812 9.46406 7.15781 9.62812 7.5H1.60781L12 1.6125L22.3922 7.5H14.3719ZM12 5.25C12.2984 5.25 12.5845 5.36853 12.7955 5.5795C13.0065 5.79048 13.125 6.07663 13.125 6.375C13.125 6.67337 13.0065 6.95952 12.7955 7.1705C12.5845 7.38147 12.2984 7.5 12 7.5C11.7016 7.5 11.4155 7.38147 11.2045 7.1705C10.9935 6.95952 10.875 6.67337 10.875 6.375C10.875 6.07663 10.9935 5.79048 11.2045 5.5795C11.4155 5.36853 11.7016 5.25 12 5.25ZM3 16.5C2.5875 16.5 2.25 16.8375 2.25 17.25C2.25 17.6625 2.5875 18 3 18H21C21.4125 18 21.75 17.6625 21.75 17.25C21.75 16.8375 21.4125 16.5 21 16.5V10.5H19.5V16.5H15.75V10.5H14.25V16.5H9.75V10.5H8.25V16.5H4.5V10.5H3V16.5ZM1.875 19.5C1.4625 19.5 1.125 19.8375 1.125 20.25C1.125 20.6625 1.4625 21 1.875 21H22.125C22.5375 21 22.875 20.6625 22.875 20.25C22.875 19.8375 22.5375 19.5 22.125 19.5H1.875ZM0.75 22.5C0.3375 22.5 0 22.8375 0 23.25C0 23.6625 0.3375 24 0.75 24H23.25C23.6625 24 24 23.6625 24 23.25C24 22.8375 23.6625 22.5 23.25 22.5H0.75Z" fill="black"/>
</g>
<defs>
<clipPath id="clip0_105_14">
<rect width="24" height="24" fill="white"/>
</clipPath>
</defs>
</svg>
