<svg width="24" height="24" viewBox="0 0 24 24" fill="none" xmlns="http://www.w3.org/2000/svg">
<g clip-path="url(#clip0_1_4)">
<path d="M1.49997 11.25C1.49997 6.96562 5.89685 3 12 3C18.1031 3 22.5 6.96562 22.5 11.25C22.5 15.5344 18.1031 19.5 12 19.5C10.5 19.5 9.04685 19.2234 7.61716 18.7406C7.1531 18.5859 6.64685 18.6562 6.24841 18.9375C5.52654 19.4391 4.77654 19.875 3.97966 20.2219L4.27497 20.9062L3.97497 20.2172C3.48279 20.4328 2.96716 20.6203 2.44216 20.7562C2.4656 20.7141 2.49372 20.6719 2.51716 20.6344C3.18747 19.5234 3.57654 18.3281 3.72185 17.0578C3.76872 16.6266 3.62341 16.2281 3.37497 15.9375C2.22654 14.5594 1.49997 12.9891 1.49997 11.25ZM12 1.5C5.36716 1.5 -2.59331e-05 5.86875 -2.59331e-05 11.25C-2.59331e-05 13.4344 0.918724 15.3328 2.22185 16.8984C2.22185 16.9031 2.22654 16.9031 2.22654 16.9078C2.10466 17.9672 1.78122 18.9469 1.2281 19.8656C0.923412 20.3719 0.595287 20.8406 0.210912 21.225C-2.59429e-05 21.4406 -0.0656509 21.7641 0.0515366 22.0406C0.168724 22.3172 0.440599 22.5 0.745287 22.5C2.0906 22.5 3.44529 22.0828 4.57029 21.5953C5.47029 21.2016 6.30935 20.7188 7.09685 20.1656C7.10622 20.1609 7.12029 20.1562 7.12966 20.1609C8.69529 20.6859 10.3125 21 12 21C18.6328 21 24 16.6313 24 11.25C24 5.86875 18.6328 1.5 12 1.5ZM5.99997 12.375C6.29834 12.375 6.58449 12.2565 6.79547 12.0455C7.00645 11.8345 7.12497 11.5484 7.12497 11.25C7.12497 10.9516 7.00645 10.6655 6.79547 10.4545C6.58449 10.2435 6.29834 10.125 5.99997 10.125C5.70161 10.125 5.41546 10.2435 5.20448 10.4545C4.9935 10.6655 4.87497 10.9516 4.87497 11.25C4.87497 11.5484 4.9935 11.8345 5.20448 12.0455C5.41546 12.2565 5.70161 12.375 5.99997 12.375ZM12 12.375C12.2983 12.375 12.5845 12.2565 12.7955 12.0455C13.0064 11.8345 13.125 11.5484 13.125 11.25C13.125 10.9516 13.0064 10.6655 12.7955 10.4545C12.5845 10.2435 12.2983 10.125 12 10.125C11.7016 10.125 11.4155 10.2435 11.2045 10.4545C10.9935 10.6655 10.875 10.9516 10.875 11.25C10.875 11.5484 10.9935 11.8345 11.2045 12.0455C11.4155 12.2565 11.7016 12.375 12 12.375ZM19.125 11.25C19.125 10.9516 19.0064 10.6655 18.7955 10.4545C18.5845 10.2435 18.2983 10.125 18 10.125C17.7016 10.125 17.4155 10.2435 17.2045 10.4545C16.9935 10.6655 16.875 10.9516 16.875 11.25C16.875 11.5484 16.9935 11.8345 17.2045 12.0455C17.4155 12.2565 17.7016 12.375 18 12.375C18.2983 12.375 18.5845 12.2565 18.7955 12.0455C19.0064 11.8345 19.125 11.5484 19.125 11.25Z" fill="black"/>
</g>
<defs>
<clipPath id="clip0_1_4">
<rect width="24" height="24" fill="white"/>
</clipPath>
</defs>
</svg>
