<svg width="24" height="24" viewBox="0 0 24 24" fill="none" xmlns="http://www.w3.org/2000/svg">
<g clip-path="url(#clip0_1_8)">
<path d="M19.3172 19.5281C18.6609 16.9266 16.3078 15 13.5 15H10.5C7.69219 15 5.33906 16.9266 4.68281 19.5281C2.71875 17.6203 1.5 14.9531 1.5 12C1.5 6.20156 6.20156 1.5 12 1.5C17.7984 1.5 22.5 6.20156 22.5 12C22.5 14.9531 21.2812 17.6203 19.3172 19.5281ZM17.9813 20.625C16.2891 21.8062 14.2266 22.5 12 22.5C9.77344 22.5 7.71094 21.8062 6.01406 20.6297C6.20156 18.3188 8.1375 16.5 10.5 16.5H13.5C15.8625 16.5 17.7938 18.3188 17.9859 20.6297L17.9813 20.625ZM12 24C15.1826 24 18.2348 22.7357 20.4853 20.4853C22.7357 18.2348 24 15.1826 24 12C24 8.8174 22.7357 5.76516 20.4853 3.51472C18.2348 1.26428 15.1826 0 12 0C8.8174 0 5.76516 1.26428 3.51472 3.51472C1.26428 5.76516 0 8.8174 0 12C0 15.1826 1.26428 18.2348 3.51472 20.4853C5.76516 22.7357 8.8174 24 12 24ZM12 12C11.4033 12 10.831 11.7629 10.409 11.341C9.98705 10.919 9.75 10.3467 9.75 9.75C9.75 9.15326 9.98705 8.58097 10.409 8.15901C10.831 7.73705 11.4033 7.5 12 7.5C12.5967 7.5 13.169 7.73705 13.591 8.15901C14.0129 8.58097 14.25 9.15326 14.25 9.75C14.25 10.3467 14.0129 10.919 13.591 11.341C13.169 11.7629 12.5967 12 12 12ZM8.25 9.75C8.25 10.7446 8.64509 11.6984 9.34835 12.4017C10.0516 13.1049 11.0054 13.5 12 13.5C12.9946 13.5 13.9484 13.1049 14.6517 12.4017C15.3549 11.6984 15.75 10.7446 15.75 9.75C15.75 8.75544 15.3549 7.80161 14.6517 7.09835C13.9484 6.39509 12.9946 6 12 6C11.0054 6 10.0516 6.39509 9.34835 7.09835C8.64509 7.80161 8.25 8.75544 8.25 9.75Z" fill="black"/>
</g>
<defs>
<clipPath id="clip0_1_8">
<rect width="24" height="24" fill="white"/>
</clipPath>
</defs>
</svg>
