<svg width="24" height="24" viewBox="0 0 24 24" fill="none" xmlns="http://www.w3.org/2000/svg">
<path d="M12.7448 0.75C12.7448 0.3375 12.4075 0 11.9953 0C11.5831 0 11.2458 0.3375 11.2458 0.75V2.97656C10.9507 2.98125 10.6556 2.99063 10.3652 3.01875C9.24098 3.1125 8.12144 3.38438 7.20802 3.98438C6.26648 4.59844 5.58727 5.53125 5.339 6.84375C5.161 7.79531 5.25 8.63437 5.606 9.36094C5.95264 10.0781 6.51943 10.6172 7.17523 11.0344C8.42592 11.8312 10.1544 12.2859 11.7283 12.6984L11.8079 12.7172C13.4802 13.1578 14.9839 13.5563 16.0144 14.2125C16.5109 14.5313 16.8482 14.8781 17.0403 15.2719C17.2276 15.6609 17.3119 16.1625 17.1808 16.8563C16.9981 17.8266 16.3189 18.5625 15.1712 19.0125C14.0049 19.4719 12.4028 19.6031 10.5807 19.3406C9.43772 19.1719 7.72328 18.7734 6.30396 18.1594C5.92453 17.9953 5.48421 18.1687 5.32026 18.5531C5.15632 18.9375 5.32963 19.3734 5.71374 19.5375C7.28765 20.2172 9.13793 20.6391 10.3652 20.8219H10.3699C10.6697 20.8641 10.9648 20.8969 11.2552 20.9203V23.25C11.2552 23.6625 11.5925 24 12.0047 24C12.4169 24 12.7542 23.6625 12.7542 23.25V20.9719C13.8409 20.9391 14.8527 20.7516 15.724 20.4141C17.2229 19.8281 18.3565 18.7406 18.661 17.1375C18.839 16.1859 18.75 15.3469 18.394 14.6203C18.0474 13.9031 17.4759 13.3641 16.8248 12.9516C15.5741 12.1547 13.8456 11.7 12.2717 11.2875L12.1921 11.2687C10.5198 10.8281 9.01613 10.4297 7.9856 9.77344C7.48907 9.45469 7.1518 9.10781 6.95975 8.71406C6.77238 8.325 6.68806 7.82344 6.81922 7.12969C6.98786 6.225 7.43286 5.63906 8.03713 5.24531C8.66482 4.83281 9.51267 4.60313 10.501 4.51875C12.4825 4.35469 14.7778 4.8 16.3236 5.175C16.7264 5.27344 17.1293 5.025 17.2276 4.62187C17.326 4.21875 17.0777 3.81563 16.6749 3.71719C15.649 3.46875 14.2344 3.16875 12.7495 3.04219V0.75H12.7448Z" fill="black"/>
</svg>
