<svg width="24" height="24" viewBox="0 0 24 24" fill="none" xmlns="http://www.w3.org/2000/svg">
<g clip-path="url(#clip0_4_429)">
<path d="M1.455 2.59124C1.065 2.28374 0.498747 2.35499 0.191247 2.74499C-0.116253 3.13499 -0.0450028 3.70124 0.344997 4.00874L22.545 21.4087C22.935 21.7162 23.5012 21.645 23.8087 21.255C24.1162 20.865 24.045 20.2987 23.655 19.9912L19.71 16.9012C21.195 15.3787 22.2 13.6725 22.7062 12.4612C22.83 12.165 22.83 11.835 22.7062 11.5387C22.1475 10.2 20.9737 8.24999 19.2187 6.62249C17.4562 4.97999 15.03 3.59999 12 3.59999C9.4425 3.59999 7.3125 4.58624 5.65125 5.87999L1.455 2.59124ZM8.36625 8.00624C9.3225 7.13249 10.6012 6.59999 12 6.59999C14.9812 6.59999 17.4 9.01874 17.4 12C17.4 12.9337 17.1637 13.8112 16.7475 14.5762L15.3 13.4437C15.615 12.72 15.6975 11.8912 15.48 11.07C15.0637 9.51374 13.6875 8.46749 12.1575 8.40374C11.94 8.39624 11.8125 8.63249 11.88 8.84249C11.9587 9.08249 12.0037 9.33749 12.0037 9.60374C12.0037 9.98624 11.9137 10.3462 11.7562 10.665L8.37 8.00999L8.36625 8.00624ZM13.9875 17.0212C13.3725 17.265 12.7012 17.4 12 17.4C9.01875 17.4 6.6 14.9812 6.6 12C6.6 11.7412 6.61875 11.49 6.6525 11.2425L3.11625 8.45624C2.26125 9.56999 1.65 10.68 1.29375 11.5387C1.17 11.835 1.17 12.165 1.29375 12.4612C1.8525 13.8 3.02625 15.75 4.78125 17.3775C6.54375 19.02 8.97 20.4 12 20.4C13.7925 20.4 15.3712 19.9162 16.7325 19.1812L13.9875 17.0212Z" fill="black"/>
</g>
<defs>
<clipPath id="clip0_4_429">
<rect width="24" height="24" fill="white"/>
</clipPath>
</defs>
</svg>
