<svg width="24" height="24" viewBox="0 0 24 24" fill="none" xmlns="http://www.w3.org/2000/svg">
<path d="M12.0373 0C12.8626 0 13.5294 0.670312 13.5294 1.5V3.17344C13.604 3.18281 13.674 3.19219 13.7486 3.20625C13.7672 3.21094 13.7812 3.21094 13.7999 3.21562L16.038 3.62813C16.8493 3.77813 17.3855 4.56094 17.2363 5.37187C17.0871 6.18281 16.3084 6.72656 15.5018 6.57656L13.287 6.16875C11.8275 5.95313 10.5406 6.09844 9.63599 6.45938C8.73141 6.82031 8.36772 7.31719 8.28379 7.77656C8.19053 8.27812 8.26047 8.55937 8.33974 8.73281C8.42367 8.91563 8.59619 9.12187 8.93658 9.35156C9.69661 9.85312 10.8623 10.1813 12.373 10.5844L12.5083 10.6219C13.8418 10.9781 15.4738 11.4094 16.6861 12.2062C17.3482 12.6422 17.973 13.2328 18.3601 14.0578C18.7564 14.8969 18.8403 15.8344 18.6585 16.8328C18.3367 18.6141 17.1151 19.8047 15.5997 20.4281C14.9609 20.6906 14.2661 20.8594 13.5294 20.9437V22.5C13.5294 23.3297 12.8626 24 12.0373 24C11.212 24 10.5452 23.3297 10.5452 22.5V20.8641C10.5266 20.8594 10.5033 20.8594 10.4846 20.8547H10.4753C9.33758 20.6766 7.4678 20.1844 6.20885 19.6219C5.45814 19.2844 5.11776 18.3984 5.45348 17.6437C5.7892 16.8891 6.67047 16.5469 7.42117 16.8844C8.39569 17.3203 9.99969 17.7516 10.9276 17.8969C12.415 18.1172 13.6413 17.9906 14.4713 17.6484C15.2593 17.325 15.6183 16.8563 15.7209 16.2938C15.8095 15.7969 15.7396 15.5109 15.6603 15.3375C15.5717 15.15 15.3992 14.9437 15.0541 14.7141C14.2894 14.2125 13.1191 13.8844 11.6037 13.4813L11.4731 13.4484C10.1442 13.0922 8.51226 12.6562 7.29994 11.8594C6.63783 11.4234 6.01768 10.8281 5.63067 10.0031C5.23899 9.16406 5.15973 8.22656 5.34624 7.22812C5.68196 5.4375 7.01551 4.275 8.53092 3.67031C9.15106 3.42188 9.83183 3.25313 10.5452 3.15469V1.5C10.5452 0.670312 11.212 0 12.0373 0Z" fill="black"/>
</svg>
