<svg width="24" height="24" viewBox="0 0 24 24" fill="none" xmlns="http://www.w3.org/2000/svg">
<path fill-rule="evenodd" clip-rule="evenodd" d="M7.71429 5.7C7.71429 3.3804 9.63307 1.5 12 1.5C14.3669 1.5 16.2857 3.3804 16.2857 5.7C16.2857 8.0196 14.3669 9.9 12 9.9C9.63307 9.9 7.71429 8.0196 7.71429 5.7Z" fill="black"/>
<path fill-rule="evenodd" clip-rule="evenodd" d="M16.2857 9.06C16.2857 7.20432 17.8207 5.7 19.7143 5.7C21.6078 5.7 23.1429 7.20432 23.1429 9.06C23.1429 10.9157 21.6078 12.42 19.7143 12.42C17.8207 12.42 16.2857 10.9157 16.2857 9.06Z" fill="black"/>
<path fill-rule="evenodd" clip-rule="evenodd" d="M0.857143 9.06C0.857143 7.20432 2.39217 5.7 4.28571 5.7C6.17926 5.7 7.71429 7.20432 7.71429 9.06C7.71429 10.9157 6.17926 12.42 4.28571 12.42C2.39217 12.42 0.857143 10.9157 0.857143 9.06Z" fill="black"/>
<path fill-rule="evenodd" clip-rule="evenodd" d="M5.49698 15.0716C6.86609 12.9737 9.26668 11.58 12 11.58C14.7337 11.58 17.1345 12.9741 18.5035 15.0724C19.45 16.523 19.8595 18.2722 19.6674 19.9777C19.6374 20.2442 19.4793 20.4807 19.242 20.6141C17.1079 21.8141 14.6344 22.5 12 22.5C9.36562 22.5 6.8921 21.8141 4.758 20.6141C4.52068 20.4807 4.36263 20.2442 4.33261 19.9777C4.1405 18.2719 4.55018 16.5224 5.49698 15.0716Z" fill="black"/>
<path d="M4.09404 14.1041C4.08028 14.1248 4.0666 14.1456 4.053 14.1665C2.94962 15.8572 2.44466 17.8707 2.59967 19.8557C1.90476 19.7523 1.23051 19.5859 0.583346 19.3625L0.451966 19.3172C0.212296 19.2344 0.0448313 19.0211 0.0246754 18.7729L0.0136264 18.6368C0.00459102 18.5256 0 18.4132 0 18.3C0 16.0434 1.81605 14.2024 4.09404 14.1041Z" fill="black"/>
<path d="M21.4007 19.8556C21.5557 17.871 21.051 15.8579 19.948 14.1674C19.9342 14.1463 19.9203 14.1252 19.9064 14.1041C22.1842 14.2026 24 16.0435 24 18.3C24 18.4132 23.9954 18.5256 23.9864 18.6368L23.9753 18.7729C23.9552 19.0211 23.7877 19.2344 23.548 19.3172L23.4167 19.3625C22.7696 19.5858 22.0955 19.7522 21.4007 19.8556Z" fill="black"/>
</svg>
