<svg width="24" height="24" viewBox="0 0 24 24" fill="none" xmlns="http://www.w3.org/2000/svg">
<path d="M4.25526 1C3.68694 1 3.14189 1.22287 2.74003 1.61958L1.25526 3.08532C-0.418419 4.73754 -0.418419 7.41631 1.25526 9.06853C2.78344 10.5771 5.17856 10.7083 6.85747 9.46196C7.57336 9.9925 8.46398 10.3077 9.42857 10.3077C10.3933 10.3077 11.2841 9.99241 12 9.46172C12.7159 9.99241 13.6067 10.3077 14.5714 10.3077C15.536 10.3077 16.4266 9.99251 17.1425 9.46196C18.8214 10.7083 21.2166 10.5771 22.7447 9.06853C24.4184 7.41631 24.4184 4.73753 22.7447 3.08532L21.26 1.61959C20.8581 1.22287 20.3131 1.00001 19.7447 1L4.25526 1Z" fill="black"/>
<path fill-rule="evenodd" clip-rule="evenodd" d="M1.71429 21.3077V11.4304C3.33738 12.1902 5.23417 12.1896 6.85764 11.4295C7.63731 11.795 8.50984 12 9.42857 12C10.3475 12 11.2202 11.7949 12 11.4293C12.7798 11.7949 13.6525 12 14.5714 12C15.4902 12 16.3627 11.795 17.1424 11.4295C18.7658 12.1896 20.6626 12.1902 22.2857 11.4304V21.3077H23.1429C23.6162 21.3077 24 21.6865 24 22.1538C24 22.6212 23.6162 23 23.1429 23H0.857143C0.383756 23 0 22.6212 0 22.1538C0 21.6865 0.383756 21.3077 0.857143 21.3077H1.71429ZM5.14286 14.5385C5.14286 14.0711 5.52661 13.6923 6 13.6923H9.42857C9.90196 13.6923 10.2857 14.0711 10.2857 14.5385V17.9231C10.2857 18.3904 9.90196 18.7692 9.42857 18.7692H6C5.52661 18.7692 5.14286 18.3904 5.14286 17.9231V14.5385ZM14.5714 13.6923C14.098 13.6923 13.7143 14.0711 13.7143 14.5385V20.4615C13.7143 20.9289 14.098 21.3077 14.5714 21.3077H18C18.4734 21.3077 18.8571 20.9289 18.8571 20.4615V14.5385C18.8571 14.0711 18.4734 13.6923 18 13.6923H14.5714Z" fill="black"/>
</svg>
