<svg width="24" height="24" viewBox="0 0 24 24" fill="none" xmlns="http://www.w3.org/2000/svg">
<path d="M9.75 2.25C9.75 1.65326 9.98705 1.08097 10.409 0.65901C10.831 0.237053 11.4033 0 12 0C12.5967 0 13.169 0.237053 13.591 0.65901C14.0129 1.08097 14.25 1.65326 14.25 2.25C14.25 2.84674 14.0129 3.41903 13.591 3.84099C13.169 4.26295 12.5967 4.5 12 4.5C11.4033 4.5 10.831 4.26295 10.409 3.84099C9.98705 3.41903 9.75 2.84674 9.75 2.25ZM11.625 16.5V22.5C11.625 23.3297 10.9547 24 10.125 24C9.29531 24 8.625 23.3297 8.625 22.5V12.0422L7.28437 14.2734C6.85781 14.9812 5.93437 15.2109 5.22656 14.7844C4.51875 14.3578 4.28906 13.4344 4.71562 12.7266L7.44843 8.17969C8.26406 6.825 9.72656 5.99531 11.3062 5.99531H12.6984C14.2781 5.99531 15.7406 6.825 16.5562 8.17969L19.2891 12.7266C19.7156 13.4344 19.4859 14.3578 18.7781 14.7844C18.0703 15.2109 17.1469 14.9812 16.7203 14.2734L15.375 12.0422V22.5C15.375 23.3297 14.7047 24 13.875 24C13.0453 24 12.375 23.3297 12.375 22.5V16.5H11.625Z" fill="black"/>
</svg>
