<svg width="131" height="24" viewBox="0 0 131 24" fill="none"
  xmlns="http://www.w3.org/2000/svg">
  <path d="M32.4053 20.0849V3.48431H39.9997C41.9157 3.48431 43.3061 3.97057 44.1709 4.94309C45.0575 5.97532 45.5214 7.31268 45.4674 8.68092C45.4649 9.70166 45.1773 10.7008 44.6379 11.5623C44.1004 12.459 43.269 13.1349 42.2895 13.4717L45.4674 20.0883H41.9151L38.8544 13.8991H35.5594V20.0883L32.4053 20.0849ZM35.5594 10.86H40.0464C40.3472 10.8873 40.6501 10.846 40.9332 10.7393C41.2162 10.6326 41.4722 10.463 41.6825 10.2431C42.0352 9.80209 42.2178 9.24592 42.1961 8.67834C42.2155 8.12007 42.0371 7.57323 41.6935 7.13685C41.4823 6.915 41.2245 6.74433 40.9394 6.63752C40.6542 6.53071 40.349 6.49051 40.0464 6.51991H35.5594V10.86ZM55.5384 20.0849V18.9466C55.1526 19.4224 54.6617 19.7991 54.1056 20.0463C53.5495 20.2935 52.9438 20.4041 52.3376 20.3692C51.2388 20.3976 50.1724 19.9892 49.3661 19.231C48.9251 18.7458 48.5892 18.1723 48.38 17.5474C48.1707 16.9224 48.0928 16.2599 48.1511 15.6026V7.96662H51.1889V14.6065C51.132 15.35 51.3079 16.0927 51.6915 16.7287C51.8812 16.9622 52.1238 17.1455 52.3985 17.2632C52.6732 17.3808 52.9719 17.4292 53.269 17.4043C54.7802 17.4043 55.5359 16.4872 55.5359 14.653V7.96576H58.5737V20.084L55.5384 20.0849ZM66.0297 20.3692C65.0795 20.3727 64.1394 20.1706 63.2721 19.7764C62.4735 19.4401 61.7792 18.8911 61.2625 18.1875L63.2755 16.4565C63.6309 16.8555 64.0625 17.1769 64.5442 17.4011C65.0259 17.6254 65.5475 17.7479 66.0773 17.761C67.2766 17.761 67.8763 17.4054 67.8763 16.6943C67.8747 16.5271 67.8296 16.3633 67.7455 16.2196C67.6614 16.0758 67.5413 15.9572 67.3975 15.8757C66.8576 15.5567 66.2891 15.2907 65.6994 15.0813C64.5716 14.7594 63.5171 14.2155 62.5963 13.4803C62.2693 13.1805 62.0117 12.8111 61.8417 12.3985C61.6718 11.9859 61.5937 11.5403 61.6131 11.0935C61.5978 10.6053 61.7031 10.121 61.9193 9.68456C62.1355 9.24814 62.4558 8.87352 62.851 8.59476C63.7632 7.95948 64.8528 7.63922 65.9584 7.68141C66.7843 7.65177 67.6061 7.81146 68.3629 8.1486C69.1196 8.48574 69.7916 8.99166 70.3291 9.62874L68.2966 11.3124C67.6792 10.6754 66.8404 10.3094 65.9601 10.2931C64.9475 10.2931 64.4412 10.5935 64.4412 11.1944C64.4412 11.7004 65.22 12.1904 66.7777 12.6643C67.8301 12.9725 68.814 13.4839 69.6754 14.1705C70.023 14.4854 70.296 14.8759 70.4739 15.313C70.6518 15.75 70.73 16.2222 70.7027 16.6943C70.7276 17.2171 70.6256 17.7381 70.4056 18.2115C70.1856 18.685 69.8544 19.0963 69.4411 19.4093C68.4374 20.098 67.2395 20.4351 66.0297 20.3692ZM73.6242 20.0849V4.3856L76.6619 2.96301V9.10486C77.05 8.63178 77.5413 8.25693 78.0968 8.01C78.6524 7.76308 79.257 7.65088 79.8627 7.68227C80.9623 7.65013 82.031 8.0541 82.8419 8.80845C83.2812 9.29678 83.6151 9.87285 83.8223 10.4997C84.0294 11.1266 84.1053 11.7905 84.045 12.4489V20.0849H81.0072V13.3261C81.0072 11.5396 80.3141 10.6464 78.928 10.6464C77.4167 10.6464 76.6611 11.5238 76.6611 13.2787V20.0857L73.6242 20.0849ZM94.2103 20.0849V19.2077C93.8004 19.6039 93.3153 19.9112 92.7845 20.1109C92.2538 20.3106 91.6885 20.3985 91.1232 20.3692C89.9786 20.4192 88.8545 20.0488 87.9573 19.3258C87.5435 18.9594 87.2179 18.5018 87.0052 17.9881C86.7926 17.4743 86.6986 16.918 86.7304 16.3617C86.6977 15.7853 86.8078 15.2098 87.0507 14.6878C87.2937 14.1658 87.6617 13.7139 88.1211 13.3735C89.1018 12.6769 90.2774 12.3195 91.4739 12.3541C92.4158 12.3325 93.3503 12.5272 94.2077 12.9237V12.3068C94.2077 11.0263 93.4911 10.3861 92.058 10.3861C90.7341 10.3903 89.4441 10.8119 88.3665 11.5924L87.4326 9.10227C88.8802 8.13551 90.5837 7.63928 92.3161 7.67969C92.8864 7.67244 93.4558 7.7282 94.0141 7.84599C94.5503 7.97542 95.0651 8.18323 95.5424 8.46293C96.096 8.79075 96.5273 9.29514 96.7692 9.89758C97.0802 10.6764 97.2274 11.5125 97.2013 12.3524V20.0832L94.2103 20.0849ZM91.7091 17.6662C92.6381 17.6747 93.5342 17.3178 94.2094 16.6702V15.3656C93.502 15.0869 92.748 14.9499 91.9892 14.9624C91.4168 14.9379 90.8472 15.0562 90.3303 15.307C90.1348 15.4009 89.9708 15.551 89.8586 15.7386C89.7465 15.9263 89.6911 16.1432 89.6994 16.3625C89.6977 16.5534 89.7453 16.7413 89.8375 16.9077C89.9297 17.074 90.0633 17.2128 90.225 17.3104C90.6749 17.5733 91.1908 17.697 91.7091 17.6662ZM105.939 20.3692C105.471 20.3983 105.002 20.3071 104.578 20.1039C104.153 19.9008 103.786 19.5922 103.51 19.2069V20.084H100.472V4.36233L103.51 2.96301V8.84378C103.813 8.45956 104.203 8.15389 104.645 7.95185C105.088 7.7498 105.572 7.65712 106.057 7.68141C106.742 7.66716 107.421 7.81553 108.041 8.11471C108.66 8.41389 109.201 8.85561 109.622 9.40471C110.606 10.7284 111.098 12.3615 111.013 14.0171C111.117 15.6954 110.636 17.3574 109.655 18.7123C109.203 19.2604 108.633 19.6952 107.988 19.9827C107.344 20.2701 106.643 20.4024 105.939 20.3692ZM105.589 17.4051C105.934 17.4205 106.278 17.3457 106.587 17.188C106.896 17.0302 107.159 16.7946 107.353 16.5039C107.805 15.7572 108.021 14.8884 107.972 14.0137C108.027 13.1357 107.811 12.262 107.353 11.5149C107.153 11.2333 106.887 11.0069 106.579 10.8564C106.271 10.7059 105.93 10.6361 105.589 10.6532C105.187 10.625 104.785 10.7018 104.421 10.8762C104.057 11.0505 103.743 11.3167 103.51 11.6493V16.4358C103.748 16.7618 104.063 17.0216 104.427 17.191C104.79 17.3605 105.19 17.4341 105.589 17.4051ZM114.048 20.0849V4.40972L117.085 2.96301V20.0849H114.048ZM125.707 20.3692C124.946 20.4081 124.185 20.2775 123.479 19.9867C122.773 19.6959 122.138 19.2518 121.618 18.6856C120.557 17.3752 120.023 15.7066 120.123 14.0137C120.034 12.3346 120.572 10.683 121.63 9.3892C122.145 8.81894 122.776 8.37039 123.481 8.07528C124.185 7.78017 124.944 7.64571 125.705 7.68141C126.404 7.65338 127.101 7.76806 127.756 8.01865C128.41 8.26924 129.008 8.65062 129.514 9.14019C130.033 9.71025 130.431 10.382 130.684 11.114C130.937 11.846 131.04 12.6229 130.986 13.3967C130.995 14.0068 130.964 14.6168 130.893 15.2226H123.114C123.128 15.562 123.208 15.8953 123.351 16.2028C123.493 16.5102 123.695 16.7857 123.944 17.0131C124.431 17.4466 125.06 17.6793 125.708 17.6654C126.204 17.678 126.696 17.5706 127.143 17.352C127.59 17.1333 127.979 16.8098 128.278 16.4082L130.146 18.3288C129.612 18.9943 128.933 19.5249 128.163 19.8789C127.393 20.233 126.553 20.4008 125.708 20.3692H125.707ZM123.137 12.6144H128.021C127.964 11.9954 127.695 11.4162 127.262 10.9772C126.841 10.579 126.283 10.3658 125.708 10.3844C125.392 10.345 125.072 10.3727 124.767 10.4658C124.463 10.5588 124.181 10.7152 123.939 10.925C123.697 11.1347 123.501 11.3932 123.363 11.6841C123.225 11.9749 123.148 12.2917 123.137 12.6144Z" fill="#092235"/>
  <path fill-rule="evenodd" clip-rule="evenodd" d="M10.4674 0.28931L25.2003 10.6713C25.4117 10.8201 25.5844 11.0187 25.7037 11.25C25.823 11.4813 25.8853 11.7385 25.8853 11.9996C25.8853 12.2606 25.823 12.5178 25.7037 12.7492C25.5844 12.9805 25.4117 13.179 25.2003 13.3278L10.4674 23.7107C10.2284 23.8793 9.94848 23.9783 9.65799 23.9968C9.36749 24.0153 9.07756 23.9527 8.81966 23.8158C8.56177 23.6788 8.34578 23.4728 8.19517 23.22C8.04455 22.9672 7.96506 22.6774 7.96533 22.382V1.61711C7.96521 1.32179 8.04482 1.03208 8.1955 0.779433C8.34618 0.526787 8.56217 0.320862 8.82004 0.184016C9.0779 0.0471707 9.36778 -0.0153657 9.6582 0.0031968C9.94861 0.0217593 10.2285 0.120711 10.4674 0.28931Z" fill="#00A5EB"/>
  <g style="mix-blend-mode:multiply">
    <path fill-rule="evenodd" clip-rule="evenodd" d="M2.49611 1.88423L15.0845 10.6679C15.2976 10.8164 15.4719 11.0153 15.5923 11.2475C15.7127 11.4797 15.7756 11.7381 15.7756 12.0004C15.7756 12.2628 15.7127 12.5212 15.5923 12.7534C15.4719 12.9855 15.2976 13.1845 15.0845 13.333L2.49611 22.1158C2.25694 22.2829 1.9773 22.3805 1.68742 22.3981C1.39755 22.4156 1.10847 22.3523 0.851449 22.2152C0.594429 22.078 0.379248 21.8721 0.229178 21.6198C0.079108 21.3675 -0.000141209 21.0784 8.32846e-07 20.7837V3.2172C-0.000296155 2.92242 0.0788404 2.63316 0.228849 2.38073C0.378857 2.1283 0.594025 1.92231 0.851073 1.78504C1.10812 1.64777 1.39726 1.58445 1.68721 1.60194C1.97716 1.61942 2.25688 1.71704 2.49611 1.88423Z" fill="#00CA9F"/>
  </g>
</svg>
