<svg width="24" height="24" viewBox="0 0 24 24" fill="none" xmlns="http://www.w3.org/2000/svg">
<path d="M20.652 3.14716C20.3848 2.9659 20.0393 2.9505 19.7567 3.10979L3.42652 12.3902C3.14724 12.552 2.98228 12.8543 3.00152 13.1742C3.02076 13.495 3.2209 13.7775 3.51742 13.9016L8.91226 16.165V20.1552C8.91226 20.4639 9.08107 20.7472 9.35215 20.8956C9.47873 20.9648 9.61598 21 9.72507 21C9.884 21 10.0431 20.955 10.1822 20.866L14.0955 18.3537L17.564 19.8092C17.669 19.8531 17.7801 19.8751 17.8911 19.8751C18.0346 19.8751 18.1776 19.8389 18.3057 19.7663C18.5328 19.6389 18.6886 19.4127 18.7262 19.1553L20.9785 3.96781C21.0567 3.64828 20.9159 3.32952 20.652 3.14716ZM15.9962 7.19062L9.41187 14.5348L5.75302 13.009L15.9962 7.19062ZM10.5697 18.6094V16.8741L12.2043 17.56L10.5697 18.6094ZM17.2455 17.8324L11.0307 15.2242L18.9347 6.45269L17.2455 17.8324Z" fill="black"/>
</svg>
