<svg width="24" height="24" viewBox="0 0 24 24" fill="none" xmlns="http://www.w3.org/2000/svg">
<path d="M12.3141 12.6413H7.92389C7.40647 12.6413 6.98313 13.0623 6.98313 13.5769C6.98313 14.0915 7.40647 14.5125 7.92389 14.5125H12.3141C12.8354 14.5125 13.2549 14.0954 13.2549 13.5769C13.2549 13.0584 12.8354 12.6413 12.3141 12.6413ZM16.0771 8.89881H7.92389C7.40647 8.89881 6.98313 9.31984 6.98313 9.83443C6.98313 10.349 7.40647 10.77 7.92389 10.77H16.0771C16.5985 10.77 17.0179 10.3529 17.0179 9.83443C17.0179 9.31594 16.5985 8.89881 16.0771 8.89881ZM12.0005 3.25C6.45787 3.25 2.00103 6.8806 2.00103 11.3587C2.00103 13.2151 2.78147 14.916 4.07501 16.2824C3.49213 17.8223 2.27698 19.1236 2.25738 19.138C1.99777 19.4109 1.92918 19.8105 2.07617 20.1516C2.19373 20.5278 2.52942 20.75 2.90651 20.75C5.31681 20.75 7.18304 19.7462 8.35899 18.947C9.49065 19.2978 10.7172 19.5025 12.0005 19.5025C17.5432 19.5025 22 15.8719 22 11.4289C22 6.98585 17.5432 3.25 12.0005 3.25ZM12.0005 17.6313C10.952 17.6313 9.9183 17.4705 8.92893 17.1588L8.03717 16.881L7.2732 17.4169C6.71462 17.8114 5.94555 18.2503 5.01969 18.5474C5.3087 18.0749 5.58297 17.5436 5.79856 16.9783L6.21484 15.8867L5.40658 15.0337C4.70218 14.2825 3.84962 13.0428 3.84962 11.3938C3.84962 7.95344 7.50447 5.15633 11.9676 5.15633C16.4636 5.15633 20.0856 7.95344 20.0856 11.3938C20.0856 14.8341 16.5005 17.6313 12.0005 17.6313Z" fill="black"/>
</svg>
