<svg width="24" height="24" viewBox="0 0 24 24" fill="none" xmlns="http://www.w3.org/2000/svg">
<path d="M11.9986 2C12.3472 2 12.6654 2.20512 12.817 2.52822L15.4161 8.04798L21.2243 8.93486C21.5653 8.98566 21.8456 9.23179 21.9555 9.56779C22.0616 9.9077 21.9744 10.2789 21.732 10.525L17.5188 14.8305L18.5153 20.9058C18.5721 21.2574 18.4319 21.6169 18.1478 21.8239C17.8674 22.031 17.462 22.0584 17.1892 21.8904L11.9986 19.0305L6.77766 21.8904C6.50487 22.0584 6.13357 22.031 5.84941 21.8239C5.56904 21.6169 5.42886 21.2574 5.45159 20.9058L6.47835 14.8305L2.2694 10.525C2.02464 10.2789 1.93788 9.9077 2.04548 9.56779C2.1527 9.23179 2.43572 8.98566 2.77633 8.93486L8.58112 8.04798L11.1802 2.52822C11.3356 2.20508 11.65 2 11.9986 2ZM11.9986 5.08455L10.0095 9.31384C9.87688 9.59123 9.61924 9.78658 9.32372 9.83347L4.84084 10.5133L8.09616 13.8381C8.30454 14.053 8.39926 14.3616 8.35 14.6625L7.58467 19.3352L11.5705 17.1395C11.8395 16.991 12.1615 16.991 12.4267 17.1395L16.4125 19.3352L15.6472 14.6625C15.5979 14.3616 15.6964 14.053 15.9048 13.8381L19.1594 10.5133L14.6773 9.83347C14.3779 9.78658 14.1203 9.59123 13.9915 9.31384L11.9986 5.08455Z" fill="black"/>
</svg>
